<!DOCTYPE svg PUBLIC "-//W3C//DTD SVG 1.1//EN" "http://www.w3.org/Graphics/SVG/1.1/DTD/svg11.dtd">

<!-- Uploaded to: SVG Repo, www.svgrepo.com, Transformed by: SVG Repo Mixer Tools -->
<svg fill="#5f8ea4" width="800px" height="800px" viewBox="0 0 24 24" id="iceberg" data-name="Flat Color" xmlns="http://www.w3.org/2000/svg" class="icon flat-color">

<g id="SVGRepo_bgCarrier" stroke-width="0"/>

<g id="SVGRepo_tracerCarrier" stroke-linecap="round" stroke-linejoin="round"/>

<g id="SVGRepo_iconCarrier">

<path id="primary" d="M17.92,4.39a1,1,0,0,0-.51-.69l-3-1.58a1,1,0,0,0-1.06.07L10.14,4.58l-3,.85a1,1,0,0,0-.65.6L5.07,9.63a1.11,1.11,0,0,0-.06.51l1.06,7.51a1,1,0,0,0,.33.61l4,3.49A1,1,0,0,0,11,22h.12a1,1,0,0,0,.7-.42L15,17l1.77-.34a1,1,0,0,0,.78-.74L19,10.24a.89.89,0,0,0,0-.43Z" style="fill: #6a9ab0;"/>

<path id="secondary" d="M20,11H4A1,1,0,0,1,4,9H20a1,1,0,0,1,0,2Z" style="fill: #6a9ab0);"/>

</g>

</svg>