<?xml version="1.0" encoding="utf-8"?>

<!DOCTYPE svg PUBLIC "-//W3C//DTD SVG 1.1//EN" "http://www.w3.org/Graphics/SVG/1.1/DTD/svg11.dtd">
<!-- Uploaded to: SVG Repo, www.svgrepo.com, Generator: SVG Repo Mixer Tools -->
<svg version="1.1" id="_x32_" xmlns="http://www.w3.org/2000/svg" xmlns:xlink="http://www.w3.org/1999/xlink" 
	 width="800px" height="800px" viewBox="0 0 512 512"  xml:space="preserve">
<style type="text/css">
<![CDATA[
	.st0{fill:#6a9ab0;}
]]>
</style>
<g>
	<path class="st0" d="M250.713,88.297H149.885c-82.781,0-149.891,67.109-149.891,149.891v101.625
		c0,46.328,37.563,83.891,83.891,83.891h21.984c19.828,0,48.016-5.922,62.813-20.719l94.734-80.844
		c4.375-3.703,6.875-9.156,6.875-14.891V107.875C270.291,97.063,261.525,88.297,250.713,88.297z"/>
	<path class="st0" d="M507.432,111.219c-7.156-14.063-21.594-22.922-37.375-22.922H309.604c-10.813,0-19.578,8.766-19.578,19.578
		V285.75c0,10.813,8.766,19.578,19.578,19.578h42.266c26.844,0,52.063-12.844,67.844-34.547l84.266-115.875
		C513.26,142.156,514.604,125.266,507.432,111.219z"/>
</g>
</svg>